<?xml version="1.0" encoding="utf-8"?>
<!-- Generator: Adobe Illustrator 27.5.0, SVG Export Plug-In . SVG Version: 6.00 Build 0)  -->
<svg version="1.1" xmlns="http://www.w3.org/2000/svg" xmlns:xlink="http://www.w3.org/1999/xlink" x="0px" y="0px" width="1920px"
	 height="1080px" viewBox="0 0 1920 1080" enable-background="new 0 0 1920 1080" xml:space="preserve">
<g id="Layer_1">
	<g id="Rute_1_">
	</g>
</g>
<g id="Graphic">
</g>
<g id="Notification">
</g>
<g id="Engine">
</g>
<g id="Cellphone">
</g>
<g id="Cellphone_-_Alert">
</g>
<g id="Cellphone_Pins">
</g>
<g id="Rute">
</g>
<g id="Guy">
</g>
<g id="Girl">
</g>
<g id="Pin_-_Girl">
	<g>
		
			<linearGradient id="SVGID_1_" gradientUnits="userSpaceOnUse" x1="9690.791" y1="653.7008" x2="9818.6846" y2="653.7008" gradientTransform="matrix(1 0 0 1 -8069.0269 0)">
			<stop  offset="0" style="stop-color:#202124;stop-opacity:0"/>
			<stop  offset="1" style="stop-color:#202124"/>
		</linearGradient>
		<polygon opacity="0.2" fill="url(#SVGID_1_)" points="1621.76,650.56 1739,650.56 1749.66,656.84 1621.76,656.84 		"/>
		
			<line fill="none" stroke="#FFBA00" stroke-width="2.5095" stroke-linecap="round" stroke-miterlimit="10" stroke-dasharray="10.0379" x1="471.19" y1="545.42" x2="471.19" y2="489.15"/>
		
			<linearGradient id="SVGID_00000118381022803837972010000000691089382545074366_" gradientUnits="userSpaceOnUse" x1="8174.2388" y1="755.7686" x2="8319.8301" y2="755.7686" gradientTransform="matrix(1 0 0 1 -8069.0269 0)">
			<stop  offset="0" style="stop-color:#202124;stop-opacity:0"/>
			<stop  offset="1" style="stop-color:#202124"/>
		</linearGradient>
		<polygon opacity="0.2" fill="url(#SVGID_00000118381022803837972010000000691089382545074366_)" points="105.21,751.92 
			245.99,751.92 250.8,759.61 105.21,759.61 		"/>
		<g>
			<path fill="none" stroke="#FFBA00" stroke-width="4" stroke-linecap="round" stroke-linejoin="round" stroke-miterlimit="10" d="
				M1221.88,398.9l20.84-2.4l-1.24-19.65c10.61-3.02,20.09-8.43,27.93-15.54l16.04,11.43l13.04-16.43l-14.78-13.02
				c5.01-9.01,8.08-19.16,8.72-29.86l19.57-3.29l-2.4-20.84l-19.5,1.23c-2.97-10.95-8.49-20.73-15.79-28.77l11.43-16.04
				l-16.43-13.04l-13.02,14.78c-9.25-5.14-19.72-8.25-30.74-8.78l-3.26-19.41l-20.84,2.4l1.24,19.65
				c-10.61,3.02-20.09,8.43-27.93,15.54l-16.04-11.43l-13.04,16.43l14.78,13.02c-5.28,9.5-8.42,20.27-8.83,31.61l-19.27,3.24
				l2.4,20.84l19.8-1.25c3.07,10.27,8.37,19.46,15.29,27.09l-11.43,16.04l16.43,13.04l13.02-14.78c9.25,5.14,19.72,8.25,30.74,8.78
				L1221.88,398.9z M1172.27,317.48c-4.94-29.6,16.69-56.88,46.64-58.8c25.64-1.65,48.75,16.68,52.98,42.02
				c4.94,29.6-16.69,56.88-46.64,58.8C1199.6,361.15,1176.5,342.82,1172.27,317.48z"/>
		</g>
		<g>
			
				<path fill="none" stroke="#FFBA00" stroke-width="1.0278" stroke-linecap="round" stroke-linejoin="round" stroke-miterlimit="10" d="
				M1460.76,530.34c0,0.74,0.6,1.34,1.34,1.34h1.22c0.74,0,1.34-0.6,1.34-1.34"/>
			
				<path fill="none" stroke="#FFBA00" stroke-width="1.0278" stroke-linecap="round" stroke-linejoin="round" stroke-miterlimit="10" d="
				M1471.63,511.68c0-5.11-4.3-9.22-9.49-8.9c-4.52,0.28-8.17,4.02-8.34,8.54c-0.1,2.52,0.85,4.81,2.44,6.49
				c1.39,1.46,2.21,3.37,2.21,5.39v1.53h8.53v-1.53c0-2.03,0.84-3.93,2.23-5.41C1470.71,516.19,1471.63,514.04,1471.63,511.68z"/>
			
				<path fill="none" stroke="#FFBA00" stroke-width="1.0278" stroke-linecap="round" stroke-linejoin="round" stroke-miterlimit="10" d="
				M1464.09,529.84h-2.02c-2,0-3.63-1.62-3.63-3.63v-1.47h8.53v2.22C1466.98,528.54,1465.69,529.84,1464.09,529.84z"/>
			<g>
				
					<line fill="none" stroke="#FFBA00" stroke-width="1.0278" stroke-linecap="round" stroke-linejoin="round" stroke-miterlimit="10" x1="1462.64" y1="500.3" x2="1462.64" y2="499.05"/>
				
					<line fill="none" stroke="#FFBA00" stroke-width="1.0278" stroke-linecap="round" stroke-linejoin="round" stroke-miterlimit="10" x1="1473.24" y1="509.85" x2="1474.67" y2="509.85"/>
				
					<line fill="none" stroke="#FFBA00" stroke-width="1.0278" stroke-linecap="round" stroke-linejoin="round" stroke-miterlimit="10" x1="1450.76" y1="509.94" x2="1452.01" y2="509.94"/>
				
					<line fill="none" stroke="#FFBA00" stroke-width="1.0278" stroke-linecap="round" stroke-linejoin="round" stroke-miterlimit="10" x1="1469.4" y1="503.14" x2="1470.36" y2="502.18"/>
				
					<line fill="none" stroke="#FFBA00" stroke-width="1.0278" stroke-linecap="round" stroke-linejoin="round" stroke-miterlimit="10" x1="1455.98" y1="503.14" x2="1455.02" y2="502.18"/>
			</g>
			
				<line fill="none" stroke="#FFBA00" stroke-width="1.0278" stroke-linecap="round" stroke-linejoin="round" stroke-miterlimit="10" x1="1460.61" y1="526.45" x2="1464.81" y2="526.45"/>
			
				<line fill="none" stroke="#FFBA00" stroke-width="1.0278" stroke-linecap="round" stroke-linejoin="round" stroke-miterlimit="10" x1="1460.61" y1="528.07" x2="1464.81" y2="528.07"/>
		</g>
		<g>
			<circle fill="none" stroke="#E17402" stroke-width="4" stroke-miterlimit="10" cx="1020.72" cy="567" r="42.86"/>
			<g>
				<circle fill="none" stroke="#E17402" stroke-width="2" stroke-miterlimit="10" cx="1020.72" cy="567.2" r="25.61"/>
				
					<ellipse fill="none" stroke="#E17402" stroke-width="2" stroke-miterlimit="10" cx="1020.72" cy="567.2" rx="13.18" ry="25.61"/>
				<line fill="none" stroke="#E17402" stroke-width="2" stroke-miterlimit="10" x1="1020.5" y1="591.91" x2="1020.5" y2="542.04"/>
				
					<line fill="none" stroke="#E17402" stroke-width="2" stroke-miterlimit="10" x1="995.56" y1="566.97" x2="1045.44" y2="566.97"/>
				
					<line fill="none" stroke="#E17402" stroke-width="2" stroke-miterlimit="10" x1="1000.68" y1="581.63" x2="1041.48" y2="581.63"/>
				
					<line fill="none" stroke="#E17402" stroke-width="2" stroke-miterlimit="10" x1="1000.55" y1="552.68" x2="1041.35" y2="552.68"/>
			</g>
		</g>
		<g>
			
				<rect x="280.17" y="416.16" fill="none" stroke="#E17402" stroke-width="2" stroke-miterlimit="10" width="32.34" height="19.99"/>
			<polyline fill="none" stroke="#E17402" stroke-width="2" stroke-miterlimit="10" points="280.32,416.45 296.19,426.91 
				312.36,416.89 			"/>
		</g>
		<g>
			<g>
				
					<linearGradient id="SVGID_00000047026503691122529240000009410313241813876640_" gradientUnits="userSpaceOnUse" x1="380.3293" y1="538.9756" x2="380.3293" y2="829.6635">
					<stop  offset="0.2421" style="stop-color:#F1F3F4"/>
					<stop  offset="0.5531" style="stop-color:#ECEEF0"/>
					<stop  offset="0.9043" style="stop-color:#DFE1E5"/>
					<stop  offset="1" style="stop-color:#DADCE0"/>
				</linearGradient>
				<path fill="url(#SVGID_00000047026503691122529240000009410313241813876640_)" d="M562.26,746.59H198.4V535.43
					c0-6.45,5.23-11.67,11.67-11.67h340.51c6.45,0,11.67,5.23,11.67,11.67V746.59z"/>
				
					<linearGradient id="SVGID_00000165203537399811733100000006986639247807349437_" gradientUnits="userSpaceOnUse" x1="380.5396" y1="742.5258" x2="380.5396" y2="757.3282">
					<stop  offset="0.2421" style="stop-color:#F1F3F4"/>
					<stop  offset="0.5531" style="stop-color:#ECEEF0"/>
					<stop  offset="0.9043" style="stop-color:#DFE1E5"/>
					<stop  offset="1" style="stop-color:#DADCE0"/>
				</linearGradient>
				<path fill="url(#SVGID_00000165203537399811733100000006986639247807349437_)" d="M567.15,759.61H193.93
					c-6.7,0-12.19-5.49-12.19-12.19v-6.21h397.6v6.21C579.34,754.13,573.85,759.61,567.15,759.61z"/>
				<path fill="#9AA0A6" d="M332.85,747.01h92.67c2.91,0,5.28-2.38,5.28-5.28v-0.51H327.57v0.51
					C327.57,744.64,329.94,747.01,332.85,747.01z"/>
				<rect x="207.67" y="533.48" fill="#FFFFFF" width="344.87" height="200.69"/>
			</g>
		</g>
		<g>
			<g>
				<g>
					
						<path fill="none" stroke="#FFBA00" stroke-width="2" stroke-linecap="round" stroke-linejoin="round" stroke-miterlimit="10" d="
						M450.49,431.41c-4.85,0.01-8.81-3.86-8.85-8.64c-0.04-4.78,3.87-8.66,8.72-8.67"/>
					
						<path fill="none" stroke="#FFBA00" stroke-width="2" stroke-linecap="round" stroke-linejoin="round" stroke-miterlimit="10" d="
						M492.41,413.9c3.79-0.1,6.94,2.9,7.03,6.69s-2.9,6.94-6.69,7.03"/>
					
						<path fill="none" stroke="#FFBA00" stroke-width="2" stroke-linecap="round" stroke-linejoin="round" stroke-miterlimit="10" d="
						M492.09,399.29l-0.08-0.86l-0.22-0.89l-0.21-0.33l-0.21-0.33l-0.34-0.36l-0.37-0.23c0,0-1.19-0.35-2.34,0.59
						c-9.61,7.84-23.75,13.13-23.75,13.13l-0.16,0.1l-0.2,0.24l-0.23,0.37l-0.06,0.27l0.31,21.32l2.87,0.38l2.57,0.45l1.71,0.53
						l1.57,0.5l1.54,0.64l1.51,0.77l2.99,1.67l2.8,1.91l3.48,2.63c0,0,2.48,2.12,3.45,2.76c1.78,1.18,4.13,0.44,4.09-1.88
						C492.78,440.35,492.09,399.29,492.09,399.29z"/>
					
						<path fill="none" stroke="#FFBA00" stroke-width="2" stroke-linecap="round" stroke-linejoin="round" stroke-miterlimit="10" d="
						M459.5,454.14l-4.16,0.02c-2.63,0.01-4.76-2.11-4.78-4.73l-0.2-36.68c0-0.86,0.59-1.62,1.43-1.81l9.99-2.32
						c1.16-0.27,2.26,0.61,2.27,1.79l0.19,41.58C464.26,454.62,462.12,454.13,459.5,454.14z"/>
				</g>
				<g>
					<path fill="#FFBA00" d="M507.79,432.99l-1.51-1c2.32-3.5,3.45-7.56,3.27-11.73c-0.19-4.25-1.71-8.25-4.42-11.57l1.41-1.15
						c2.95,3.63,4.62,7.99,4.83,12.64C511.57,424.73,510.33,429.17,507.79,432.99z"/>
					<path fill="#FFBA00" d="M503.24,428.79l-1.57-0.9c1.29-2.25,1.91-4.79,1.8-7.36c-0.12-2.63-0.99-5.15-2.52-7.3l1.48-1.05
						c1.74,2.43,2.72,5.3,2.86,8.28C505.41,423.35,504.7,426.24,503.24,428.79z"/>
				</g>
			</g>
			
				<circle fill="none" stroke="#FFBA00" stroke-width="4" stroke-linecap="round" stroke-linejoin="round" stroke-miterlimit="10" cx="475.37" cy="426.62" r="54.53"/>
		</g>
		<g>
			
				<circle fill="none" stroke="#FFBA00" stroke-width="1.8547" stroke-linecap="round" stroke-linejoin="round" stroke-miterlimit="10" cx="1462.71" cy="515.37" r="25.29"/>
		</g>
		<g>
			
				<path fill="none" stroke="#FFBA00" stroke-width="1.6426" stroke-linecap="round" stroke-linejoin="round" stroke-miterlimit="10" d="
				M903.4,319.78H726.23c-8.87,0-16.13-7.26-16.13-16.13v0c0-8.87,7.26-16.13,16.13-16.13H903.4c8.87,0,16.13,7.26,16.13,16.13v0
				C919.54,312.52,912.28,319.78,903.4,319.78z"/>
			<g>
				
					<circle fill="none" stroke="#FFBA00" stroke-linecap="round" stroke-linejoin="round" stroke-miterlimit="10" cx="899.91" cy="303.67" r="6.12"/>
				
					<line fill="none" stroke="#FFBA00" stroke-linecap="round" stroke-linejoin="round" stroke-miterlimit="10" x1="895.65" y1="308.06" x2="890.27" y2="313.6"/>
			</g>
		</g>
		<path fill="none" stroke="#FFBA00" stroke-width="4" stroke-linecap="round" stroke-linejoin="round" stroke-miterlimit="10" d="
			M1118.74,432.49l12.13-6.47l-5.47-11.68c5.74-4.39,10.23-9.96,13.3-16.18l12.52,3.12l4-13.15l-12.13-4.39
			c0.89-6.69,0.32-13.62-1.85-20.3l11.14-6.7l-6.47-12.13l-11.59,5.43c-4.44-5.96-10.15-10.6-16.53-13.75l3.12-12.52l-13.15-4
			l-4.39,12.13c-6.87-0.92-14-0.3-20.84,2.03l-6.65-11.05l-12.13,6.47l5.47,11.68c-5.74,4.39-10.23,9.96-13.3,16.18l-12.52-3.12
			l-4,13.15l12.13,4.39c-0.94,7.06-0.27,14.38,2.21,21.39l-10.97,6.6l6.47,12.13l11.77-5.52c4.33,5.53,9.77,9.86,15.82,12.85
			l-3.12,12.52l13.15,4l4.39-12.13c6.87,0.92,14,0.3,20.84-2.03L1118.74,432.49z M1077.9,389.37c-6.92-11.54-2.38-26.47,9.8-32.19
			c10.43-4.9,23.07-1.05,29,8.83c6.92,11.54,2.38,26.47-9.8,32.19C1096.48,403.1,1083.83,399.25,1077.9,389.37z"/>
		<g>
			<g>
				<g>
					<g>
						<path fill="#68221D" d="M1159.61,552.41c-7.62-3.94-12.09-9.31-14.59-15.56l5.18-11.96l19.52,10.86l3.22,7.87L1159.61,552.41z
							"/>
					</g>
				</g>
				<g>
					<path fill="#BDC1C6" d="M1159.69,538.66l-11.33,9.35c-0.74,0.61-1.86,0.45-2.52-0.34l-20.25-24.54
						c-0.66-0.8-0.59-1.93,0.14-2.54l11.33-9.35c0.74-0.61,1.86-0.45,2.52,0.34l20.25,24.54
						C1160.49,536.92,1160.43,538.05,1159.69,538.66z"/>
				</g>
				<g>
					<path fill="#DADCE0" d="M1161.38,536.97l-11.33,9.35c-0.74,0.61-1.86,0.45-2.52-0.34l-20.25-24.54
						c-0.66-0.8-0.59-1.93,0.14-2.54l11.33-9.35c0.74-0.61,1.86-0.45,2.52,0.34l20.25,24.54
						C1162.18,535.23,1162.11,536.37,1161.38,536.97z"/>
				</g>
				<path fill="#68221D" d="M1169.72,535.74l-11.62-10.75c-0.56-0.52-1.25-0.88-1.99-1.05c-3.57-0.82-14.17-2.97-13.71,0.38
					c0.34,2.45,11.32,3.85,11.32,3.85L1169.72,535.74z"/>
				<g>
					<path fill="#68221D" d="M1130.52,534.32L1130.52,534.32c-0.58-0.96-0.27-2.21,0.69-2.79l3.48-2.1
						c0.96-0.58,2.21-0.27,2.79,0.69l0,0c0.58,0.96,0.27,2.21-0.69,2.79l-3.48,2.1C1132.35,535.59,1131.1,535.28,1130.52,534.32z"/>
					<path fill="#68221D" d="M1132.46,537.06L1132.46,537.06c-0.58-0.96-0.27-2.21,0.69-2.79l4.65-2.81
						c0.96-0.58,2.21-0.27,2.79,0.69l0,0c0.58,0.96,0.27,2.21-0.69,2.79l-4.65,2.81C1134.29,538.33,1133.04,538.02,1132.46,537.06z"
						/>
					<path fill="#68221D" d="M1134.97,539.99L1134.97,539.99c-0.58-0.96-0.27-2.21,0.69-2.79l3.48-2.1
						c0.96-0.58,2.21-0.27,2.79,0.69l0,0c0.58,0.96,0.27,2.21-0.69,2.79l-3.48,2.1C1136.8,541.26,1135.56,540.95,1134.97,539.99z"/>
					<path fill="#68221D" d="M1137.53,542.91l-0.47-0.77c-0.38-0.63-0.18-1.45,0.45-1.83l3.13-1.89c0.63-0.38,1.45-0.18,1.83,0.45
						l0.47,0.77c0.38,0.63,0.18,1.45-0.45,1.83l-3.13,1.89C1138.73,543.75,1137.91,543.54,1137.53,542.91z"/>
				</g>
				<g>
					<g>
						<g>
							<path fill="#202124" d="M1198.43,820.79l-0.3,23.17l-16.82,11.02c-2.6,1.7-1.4,5.75,1.72,5.75h37.97l1.83-42.99
								L1198.43,820.79z"/>
						</g>
						<g>
							<path fill="#202124" d="M1299.8,811.04l5.49,29.73l20.28,13.58c2.86,1.92,1.51,6.39-1.94,6.39h-37.09l-7.01-42.99
								L1299.8,811.04z"/>
						</g>
						<path fill="#3183FB" d="M1202.7,602.5c0,0-9.04,71.49-4.47,233.38h23.82c0,0,14.19-146.49,26.99-237.95L1202.7,602.5z"/>
						<polygon fill="#3183FB" points="1281.66,597.02 1304.59,836.99 1283.24,840.53 1229.94,597.47 						"/>
					</g>
					<g>
						<polygon fill="#FFFFFF" points="1237.07,480.83 1206.05,560.43 1202.7,602.5 1269.46,607.08 1259.74,481.47 						"/>
						<path fill="#3B4043" d="M1237.07,480.83c0,0-12.81,18.67-25.12,154.33c-0.07,0.74-0.92,1.15-1.53,0.71l-20.38-14.61
							l17.84-116.16L1237.07,480.83z"/>
						<path fill="#3B4043" d="M1237.07,480.83l-27.06,7.36c-4.15,1.13-7.4,4.36-8.55,8.51l-12.53,50.78l-24.34-17.35l-7.42,21.34
							l33.07,21.95c5.79-0.27,15.94-7.31,17.03-13.01l9.76-51.19L1237.07,480.83z"/>
						<path fill="#3B4043" d="M1259.74,481.47c0,0-14.24,98.13-13.83,154.16l44.66-2.03l0.09-94.21L1259.74,481.47z"/>
						<path fill="#68221D" d="M1273.74,593.03l-1.97,2.81c-1.33,1.9-3.22,3.34-5.42,4.08c-4.44,1.5-13.55,4.34-12.33,7.15
							c0.7,1.61,9.18-0.58,9.18-0.58s-9.8,11.56-5.71,15.07c1.14,0.98,3.08,1.78,5.32,2.3c2.91,0.68,5.77,0.51,7.86,0.18
							c2.05-0.32,3.92-1.35,5.28-2.92c1.31-1.5,3.03-3.69,4.56-6.31c4.17-7.17,6.52-12.79,7.56-16.52L1273.74,593.03z"/>
						<path fill="#3B4043" d="M1259.74,481.47l20.12,4.45c5.51,1.22,10.05,5.1,12.11,10.36l20.18,46.49
							c3.07,7.08,2.59,15.19-1.29,21.86l-22.78,39.09l-17.68-9.45l16.77-42.07L1259.74,481.47z"/>
					</g>
					<g>
						<path fill="#68221D" d="M1260.38,452.81l-0.63,28.66c-11.34,11.76-22.67-0.65-22.67-0.65l0.81-5.88l0.36-2.61l1.61-11.71
							l0.42-3.1l11.82-2.76L1260.38,452.81z"/>
						<path fill="#5D1A18" d="M1253.21,459.22c0,0-3.74,7.39-15.33,15.72l0.36-2.61l1.61-11.71l12.15-2.61L1253.21,459.22z"/>
						<path fill="#68221D" d="M1230.15,432.89c0,0-6.56,35.36,2.28,34.79c8.84-0.57,25.38-9.69,25.38-9.69l2-16.82l-7.41-11.12
							l-12.83,0.29L1230.15,432.89z"/>
						<path fill="#202124" d="M1250.43,450.07c0,0,7.49,12.94,11.23,12.51c3.74-0.43,10.48-24.38,2.25-34.32
							c-8.23-9.94-26.95-4.28-28.44-4.28c-1.5,0-9.84-0.21-15.5-0.32c0,0,4.6,17,23.42,11.87c0,0,2.25,8.23,6.74,9.3L1250.43,450.07
							z"/>
						<path fill="#68221D" d="M1255.45,448.56c-1.17,3.41-4.36,5.4-7.14,4.45c-2.78-0.95-4.08-4.48-2.92-7.89s4.36-5.4,7.14-4.45
							C1255.31,441.62,1256.62,445.15,1255.45,448.56z"/>
					</g>
				</g>
			</g>
			
				<linearGradient id="SVGID_00000162316594580196301510000015843966399573236926_" gradientUnits="userSpaceOnUse" x1="9159.3613" y1="857.5884" x2="9366.3135" y2="857.5884" gradientTransform="matrix(1 0 0 1 -8069.0269 0)">
				<stop  offset="0" style="stop-color:#202124;stop-opacity:0"/>
				<stop  offset="1" style="stop-color:#202124"/>
			</linearGradient>
			<polygon opacity="0.2" fill="url(#SVGID_00000162316594580196301510000015843966399573236926_)" points="1090.33,854.45 
				1290.45,854.45 1297.29,860.73 1090.33,860.73 			"/>
		</g>
		<g>
			<path fill="#E2A58A" d="M608.1,503.4c0,0-57.69,65.02,0,98.36l5.88-4.26c0,0-28.64-27.43,0-61L608.1,503.4z"/>
			<g>
				<g>
					
						<linearGradient id="SVGID_00000060733425936014367260000017438135656071787697_" gradientUnits="userSpaceOnUse" x1="-9475.7217" y1="-3222.7732" x2="-9460.5176" y2="-3222.7732" gradientTransform="matrix(-0.6997 -0.7145 -0.7145 0.6997 -8193.3457 -3984.7981)">
						<stop  offset="0" style="stop-color:#80868B"/>
						<stop  offset="1" style="stop-color:#9AA0A6"/>
					</linearGradient>
					<polygon fill="url(#SVGID_00000060733425936014367260000017438135656071787697_)" points="718.28,529.44 728.91,540.3 
						749.43,520.21 738.79,509.35 					"/>
					
						<rect x="666.59" y="511.24" transform="matrix(-0.6997 -0.7145 0.7145 -0.6997 751.0203 1464.3843)" fill="#202124" width="33.39" height="126.21"/>
					<path fill="#9AA0A6" d="M742.35,400.71c34.68-33.97,90.8-33.11,125.1,1.9c34.29,35.02,33.98,91.14-0.71,125.11
						c-34.68,33.97-90.8,33.11-125.1-1.9S707.67,434.68,742.35,400.71z M749.18,407.68c-30.88,30.24-31.16,80.21-0.63,111.38
						s80.49,31.94,111.37,1.7c30.88-30.24,31.16-80.21,0.63-111.38S780.06,377.44,749.18,407.68z"/>
					<path fill="#BDC1C6" d="M736.51,397.81c34.68-33.97,90.8-33.11,125.1,1.9s33.98,91.14-0.71,125.11s-90.8,33.11-125.1-1.9
						C701.5,487.9,701.82,431.78,736.51,397.81z M743.3,404.75c-30.89,30.26-31.18,80.25-0.63,111.44
						c30.55,31.19,80.53,31.95,111.43,1.7s31.18-80.25,0.63-111.44S774.2,374.5,743.3,404.75z"/>
					<path opacity="0.1" fill="#4285F4" d="M743.55,405.01c-30.76,30.12-31.04,79.89-0.63,110.94
						c30.41,31.05,80.17,31.81,110.93,1.69c30.76-30.12,31.04-79.89,0.63-110.94S774.31,374.89,743.55,405.01z"/>
				</g>
				<g>
					
						<linearGradient id="SVGID_00000156550087443475429890000016949932244029389977_" gradientUnits="userSpaceOnUse" x1="8584.6797" y1="835.6028" x2="8730.2705" y2="835.6028" gradientTransform="matrix(1 0 0 1 -8069.0269 0)">
						<stop  offset="0" style="stop-color:#202124;stop-opacity:0"/>
						<stop  offset="1" style="stop-color:#202124"/>
					</linearGradient>
					<polygon opacity="0.2" fill="url(#SVGID_00000156550087443475429890000016949932244029389977_)" points="515.65,832.46 
						656.43,832.46 661.24,838.75 515.65,838.75 					"/>
					<g>
						<path fill="#E2A58A" d="M594.39,828.44l0.1-0.06c0,0,3.04-55.29,6.33-68.46c3.29-13.17,13.17-23.05,13.17-23.05l-9.47-112.52
							c0,0,1.71-25.69,12.58-40.09l16.65,96.64v49.38c0,0-20.76,72.92-30.74,99.83c-2.73-0.03-5.46-0.04-8.18-0.06
							C594.69,829.51,594.55,828.98,594.39,828.44z"/>
						<path fill="#F7BFA3" d="M641.83,830.53c-3.49-0.03-6.98-0.07-10.47-0.1c-2.44-21.62-10.53-95.61-0.92-110.02L610.6,619.64
							c0,0-2.16-22.41,6.48-35.38l34.07,0.45c0,0,8.92,109.36,2.33,138.99C648.16,747.69,643.55,808.29,641.83,830.53z"/>
						<polygon fill="#F7BFA3" points="636.91,475.7 639.27,503.4 616.88,503.4 622.45,461.11 						"/>
						<path fill="#F7BFA3" d="M727.11,543.1l10.89-2.71c3.82-2.81,5.36-0.29,3.26,3.07c0.73,0.98,2.55,3.91,1.19,7.23
							c-1.68,4.1-19.55,8.21-19.34,1.9L727.11,543.1z"/>
						<path fill="#F7BFA3" d="M646.39,443.7c0.8,0.47,7.1,22.68,1.82,32c-5.28,9.31-21.39-1.12-25.76-14.58
							C618.08,447.65,625.1,431.14,646.39,443.7z"/>
					</g>
				</g>
			</g>
			<path fill="#BCC1C7" d="M592.09,817.08c1.05-16.61,6.32-47.54,8.72-57.16c3.29-13.17,13.17-23.05,13.17-23.05l-9.47-112.52
				c0,0,1.71-25.69,12.58-40.09l16.65,96.64v49.38c0,0-12.71,57.62-23.37,89.33C606.52,819.06,595.96,817.47,592.09,817.08z"/>
			<path fill="#D6D6D6" d="M645.27,821.02c-3.86-0.5-13.58-1.24-17.48-1.4c-2.96-27.2-6.13-86.02,2.66-99.21L610.6,619.64
				c0,0-2.16-22.41,6.48-35.38l34.07,0.45c0,0,8.92,109.36,2.33,138.99C648.57,745.85,647.25,795.46,645.27,821.02z"/>
			<path fill="#202124" d="M631.64,829.18l13.01-1.8c0,0,14.57,6.57,18.27,6.5c3.7-0.07,1.49,4.05-1.26,5.18
				c-2.76,1.13-16.55-1.25-20.85-0.45c-4.3,0.8-9.34,0.49-9.76-0.66C629.55,833.9,631.64,829.18,631.64,829.18z"/>
			<path fill="#202124" d="M591.84,829.18l13.01-1.8c0,0,14.57,6.57,18.27,6.5c3.7-0.07,1.49,4.05-1.26,5.18
				c-2.76,1.13-16.55-1.25-20.85-0.45s-9.34,0.49-9.76-0.66C589.75,833.9,591.84,829.18,591.84,829.18z"/>
			<path fill="#FBBC04" d="M610.25,499.57c7.73-0.43,25-1.21,37.23-0.55c6.44,0.35,11.84,4.97,13.16,11.29l2.98,14.3
				c1.11,5.33,0.95,10.84-0.48,16.09l-7.23,73.48c0,0-28.13,3.7-51.54-3.16c0,0-7.85-75.78,0.57-107.14
				C605.6,501.45,607.74,499.71,610.25,499.57z"/>
			<path fill="#F7BFA3" d="M660.06,507.75c3.3,8.69,6.28,17.79,9.47,26.32c1.63,4.27,3.28,8.45,5.04,12.3
				c0.89,1.91,1.87,3.67,2.77,5.27c0.9,1.58,1.92,2.89,2.44,3.5c0.1,0.09-0.24,0.16-0.36,0.16c-0.07,0.01,2.23,0.38,2.93,0.5
				l2.76-0.02c3.95-0.2,8.42-0.9,12.91-1.77c9.05-1.69,18.46-4.06,28.12-5.85l0.07-0.01c1.85-0.34,3.63,0.88,3.97,2.73
				c0.23,1.22-0.23,2.41-1.1,3.18c-3.9,3.43-8.03,6.25-12.31,8.99c-2.16,1.32-4.35,2.61-6.58,3.85c-2.27,1.16-4.55,2.33-6.92,3.41
				c-4.77,2.08-9.69,3.99-15.37,5.22c-1.49,0.25-2.96,0.51-4.5,0.72c-1.72,0.06-3.28,0.21-5.16,0.1c-1-0.1-2-0.22-3-0.37
				c-0.53-0.09-0.93-0.1-1.57-0.28c-0.69-0.21-1.37-0.44-2.04-0.69c-1.41-0.51-2.32-1.12-3.46-1.75c-0.95-0.63-1.82-1.28-2.66-1.95
				c-3.1-2.64-5.03-5.27-6.73-7.78c-1.69-2.52-3.04-5.04-4.24-7.51c-2.42-4.93-4.3-9.82-5.83-14.75c-3.1-9.87-5.21-19.56-6.09-29.86
				c-0.42-4.93,3.23-9.28,8.16-9.7c4.08-0.35,7.76,2.09,9.15,5.74L660.06,507.75z"/>
			<path fill="#202124" d="M606.89,457.99c-2.99,14.66-12.9,10.65-19.92,17.17c-11.38,10.57-27.66-0.33-43.48,9.69
				c-11.42,7.23-16.93,25.73-11.45,40.66c7.59,20.68,33.54,29.19,46.99,22.89c12.85-6.02,11.02-24.05,28.31-31.02
				c7.34-2.96,10.96-1.04,15.36-5.42c7.7-7.68,5.62-22.57,4.82-28.31c-1.74-12.45-5.91-14.71-3.92-20.18
				c3.88-10.65,21.99-8.45,23.49-15.96c1.37-6.84-11.75-19.82-24.1-17.77C603.9,432.89,608.23,451.46,606.89,457.99z"/>
		</g>
		
			<path fill="none" stroke="#FFBA00" stroke-width="2.5095" stroke-linecap="round" stroke-miterlimit="10" stroke-dasharray="10.0379" d="
			M479.46,359.6v-34.43c0-10.57,8.57-19.15,19.15-19.15h216.83"/>
		
			<path fill="none" stroke="#FFBA00" stroke-width="2.7985" stroke-linecap="round" stroke-miterlimit="10" stroke-dasharray="11.1939" d="
			M1026.82,383.82H882.48h-3.7c-8.51,0-15.42-5.55-15.42-12.4v-43.05"/>
		
			<path fill="none" stroke="#FFBA00" stroke-width="2.5095" stroke-linecap="round" stroke-miterlimit="10" stroke-dasharray="10.0379" d="
			M1097.3,438.64v113.03c0,8.58-6.95,15.53-15.53,15.53h-18.2"/>
		<g>
			<g>
				<circle fill="none" stroke="#E17402" stroke-width="5.0429" stroke-miterlimit="10" cx="1462.09" cy="655.97" r="54.03"/>
			</g>
			<path fill="none" stroke="#E17402" stroke-width="2.5214" stroke-miterlimit="10" d="M1446.01,635.98v44.39
				c0,1.49,1.61,2.43,2.91,1.69l39.24-22.19c1.32-0.75,1.32-2.64,0-3.39l-39.24-22.19C1447.61,633.56,1446.01,634.49,1446.01,635.98
				z"/>
		</g>
		
			<path fill="none" stroke="#FFBA00" stroke-width="2.5095" stroke-linecap="round" stroke-miterlimit="10" stroke-dasharray="10.0379" d="
			M1021.08,617.27v24.63c0,7.77,6.3,14.07,14.07,14.07h161.86"/>
		
			<line fill="none" stroke="#FFBA00" stroke-width="2.5095" stroke-linecap="round" stroke-miterlimit="10" stroke-dasharray="10.0379" x1="1300.4" y1="655.97" x2="1403.45" y2="655.97"/>
		
			<line fill="none" stroke="#FFBA00" stroke-width="2.5095" stroke-linecap="round" stroke-miterlimit="10" stroke-dasharray="10.0379" x1="413.93" y1="426.91" x2="329.69" y2="426.91"/>
		<circle fill="none" stroke="#E17402" stroke-width="4" stroke-miterlimit="10" cx="296.34" cy="426.16" r="31.45"/>
		<g>
			<g>
				
					<polygon fill="none" stroke="#FFBA00" stroke-width="4" stroke-linecap="round" stroke-linejoin="round" stroke-miterlimit="10" points="
					1804.48,596.91 1654.95,596.44 1639.5,490.08 1819.85,490.65 				"/>
				
					<polyline fill="none" stroke="#FFBA00" stroke-width="4" stroke-linecap="round" stroke-linejoin="round" stroke-miterlimit="10" points="
					1596.9,433.69 1632.13,433.8 1639.5,491.24 				"/>
				
					<polyline fill="none" stroke="#FFBA00" stroke-width="4" stroke-linecap="round" stroke-linejoin="round" stroke-miterlimit="10" points="
					1654.97,596.05 1659.1,628.27 1770.62,628.62 				"/>
				
					<ellipse transform="matrix(3.133894e-03 -1 1 3.133894e-03 1102.0416 2389.7737)" fill="none" stroke="#FFBA00" stroke-width="4" stroke-linecap="round" stroke-linejoin="round" stroke-miterlimit="10" cx="1749.66" cy="642.14" rx="13.19" ry="14.26"/>
				
					<ellipse transform="matrix(3.133894e-03 -1 1 3.133894e-03 1024.7668 2311.7688)" fill="none" stroke="#FFBA00" stroke-width="4" stroke-linecap="round" stroke-linejoin="round" stroke-miterlimit="10" cx="1671.9" cy="641.89" rx="13.19" ry="14.26"/>
				
					<line fill="none" stroke="#FFBA00" stroke-width="4" stroke-linecap="round" stroke-linejoin="round" stroke-miterlimit="10" x1="1644.84" y1="525.02" x2="1813.87" y2="525.55"/>
				
					<line fill="none" stroke="#FFBA00" stroke-width="4" stroke-linecap="round" stroke-linejoin="round" stroke-miterlimit="10" x1="1649.77" y1="558.01" x2="1809.15" y2="558.51"/>
				
					<line fill="none" stroke="#FFBA00" stroke-width="4" stroke-linecap="round" stroke-linejoin="round" stroke-miterlimit="10" x1="1771.19" y1="491.27" x2="1755.35" y2="596.37"/>
				
					<line fill="none" stroke="#FFBA00" stroke-width="4" stroke-linecap="round" stroke-linejoin="round" stroke-miterlimit="10" x1="1691.09" y1="491.02" x2="1706.28" y2="596.22"/>
			</g>
		</g>
		
			<line fill="none" stroke="#FFBA00" stroke-width="2.5095" stroke-linecap="round" stroke-miterlimit="10" stroke-dasharray="10.0379" x1="1528.75" y1="655.97" x2="1650.67" y2="655.97"/>
		
			<line fill="none" stroke="#FFBA00" stroke-width="2.5095" stroke-linecap="round" stroke-miterlimit="10" stroke-dasharray="10.0379" x1="1462.09" y1="592.81" x2="1462.09" y2="542.59"/>
		<rect x="227.6" y="593.19" fill="#F4F4F4" width="178.16" height="123.82"/>
		<rect x="227.6" y="569.38" fill="#F4F4F4" width="232.13" height="12.8"/>
		<rect x="227.6" y="545.56" fill="#F4F4F4" width="306.68" height="12.8"/>
		<g>
			<rect x="412.64" y="593.19" fill="#FFBA00" width="131.12" height="44.73"/>
			<g>
				<path fill="#FFFFFF" d="M511.07,610.67l-1.48,4.88h-3.25l5.52-17.23h4.01l5.6,17.23h-3.37l-1.56-4.88H511.07z M516.01,608.29
					l-1.36-4.24c-0.33-1.05-0.61-2.22-0.87-3.22h-0.05c-0.25,1-0.51,2.2-0.82,3.22l-1.33,4.24H516.01z"/>
				<path fill="#FFFFFF" d="M523.88,598.56c1.38-0.23,3.14-0.36,5.01-0.36c3.22,0,5.44,0.67,7.03,1.99c1.66,1.35,2.68,3.4,2.68,6.34
					c0,3.07-1.05,5.37-2.68,6.85c-1.71,1.56-4.45,2.35-7.79,2.35c-1.84,0-3.22-0.1-4.24-0.23V598.56z M527.03,613.15
					c0.43,0.08,1.1,0.08,1.74,0.08c4.09,0.03,6.52-2.22,6.52-6.59c0.03-3.81-2.17-5.98-6.11-5.98c-1,0-1.71,0.08-2.15,0.18V613.15z"
					/>
			</g>
		</g>
	</g>
</g>
<g id="live_area" display="none">
</g>
</svg>
